<svg width="125" height="57" viewBox="0 0 125 57" fill="none" xmlns="http://www.w3.org/2000/svg">
<path d="M42.7706 43.2654H36.0961V27.0881H32.493V37.5373L32.3434 37.5963L24.9028 27.8763C26.6255 25.9676 28.2768 24.0579 30.0177 22.2332C31.7756 20.3881 33.8962 18.9955 36.0893 17.7208C38.109 16.547 39.8158 15.0535 41.1589 13.1199C42.9051 10.6128 45.222 8.55691 47.9184 7.12187C49.8912 6.07359 51.5818 4.56408 52.8464 2.72172C53.7531 1.40395 54.9998 0.340203 56.6999 0.0544202C58.06 -0.172391 59.1729 0.382163 60.1873 1.18167C61.7684 2.42914 62.9075 4.04177 63.9128 5.76667C65.3601 8.24459 66.8369 10.7078 68.707 12.9022C69.5548 13.8967 70.4513 14.8607 71.6538 15.422C72.1661 15.6602 72.7872 15.8757 73.3278 15.8076C76.9762 15.3789 79.9117 16.7682 82.5173 19.1758C85.106 21.5675 87.3716 24.2461 89.6259 26.9407C90.4725 27.9522 91.3985 28.8992 92.2633 29.8971C92.4364 30.106 92.5416 30.3628 92.5648 30.6332C92.6067 31.2682 92.5784 31.9078 92.5784 32.5781H84.9665V27.0892H81.368V43.2382H75.6161V30.6502H80.3389V27.0767H67.178V30.6195H71.9315V43.279C70.4717 43.279 69.0243 43.279 67.5759 43.2722C67.5213 43.2662 67.4686 43.2491 67.4208 43.222C67.3731 43.1949 67.3314 43.1583 67.2982 43.1146C66.1909 41.5439 65.0926 39.9676 63.9728 38.3663L64.4931 38.0351C67.6835 35.9938 68.2332 31.3442 65.572 28.7359C64.4387 27.6234 63.0049 27.121 61.4624 27.0711C59.2171 26.9996 56.9685 27.0529 54.6621 27.0529V43.2359H48.9022C51.169 42.2935 52.7852 40.8102 53.7395 38.6702C54.6938 36.5303 54.7312 34.3098 53.9152 32.104C52.6118 28.5771 48.9158 26.284 45.1314 26.6322C43.2449 26.808 41.4688 27.6004 40.0773 28.887C38.6857 30.1736 37.7562 31.8828 37.4323 33.7507C36.8475 37.12 38.373 41.3557 42.7706 43.2654Z" fill="white"/>
<path d="M96.2245 43.2427V32.8797C96.5724 32.9931 96.8886 33.1009 97.2116 33.187C98.2804 33.474 99.1849 33.187 99.9318 32.3796C100.612 31.6436 101.277 30.8962 101.972 30.1727C102.286 29.8454 102.627 29.545 102.992 29.2745C104.239 28.3514 105.533 28.3185 106.732 29.3052C107.519 29.9522 108.231 30.6852 108.855 31.4905C111.251 34.5899 114.089 37.2368 117.078 39.7374C118.464 40.8986 119.867 42.0384 121.329 43.2427H96.2245Z" fill="white"/>
<path d="M20.2683 30.6819V43.2416H2.32458C7.08026 37.2674 12.8322 32.7743 20.2683 30.6819Z" fill="white"/>
<path d="M50.889 35.1717C50.8953 36.1599 50.6082 37.1277 50.0641 37.9525C49.5199 38.7772 48.7433 39.4217 47.8326 39.8043C46.922 40.1868 45.9183 40.2902 44.9488 40.1012C43.9794 39.9123 43.0878 39.4396 42.3872 38.743C41.6866 38.0464 41.2085 37.1574 41.0135 36.1886C40.8185 35.2198 40.9154 34.2149 41.2919 33.3013C41.6684 32.3877 42.3075 31.6065 43.1283 31.0568C43.9491 30.507 44.9145 30.2136 45.9021 30.2136C48.6483 30.2226 50.9026 32.4624 50.889 35.1717Z" fill="white"/>
<path d="M23.9983 54.6616C24.7203 55.4554 24.9787 55.4554 26.6051 54.6514C26.757 54.9088 26.9123 55.1662 27.0585 55.4271C27.4189 56.0621 27.4177 56.0621 26.7615 56.4398C24.9481 57.4808 23.1755 57.0386 22.0727 55.2955C21.9335 55.1155 21.7307 54.9958 21.506 54.961C19.6858 54.6775 18.2611 53.8417 17.5743 52.0646C16.9067 50.3374 17.1572 48.6987 18.4232 47.331C19.7266 45.9225 21.4289 45.5596 23.2435 45.9452C25.058 46.3308 26.3036 47.4195 26.8023 49.2623C27.335 51.2254 26.366 53.43 24.5355 54.3905C24.3678 54.4824 24.2035 54.5629 23.9983 54.6616ZM22.0784 53.0489C23.5348 53.0546 24.6001 51.9274 24.6115 50.368C24.6217 48.9323 23.511 47.7313 22.1475 47.7041C20.7489 47.6769 19.5906 48.887 19.5838 50.3839C19.577 51.8809 20.6684 53.0421 22.0784 53.0489Z" fill="white"/>
<path d="M92.5353 43.2541H84.9416V42.6179C84.9416 40.673 84.9507 38.7269 84.9257 36.782C84.9201 36.3182 85.047 36.1662 85.5253 36.1708C87.6787 36.1957 89.8322 36.181 91.9856 36.1821C92.1522 36.1821 92.3188 36.1968 92.5342 36.207L92.5353 43.2541Z" fill="white"/>
<path d="M102.407 49.5039H106.627V51.2515H102.399V53.0421H107.188V54.8056H100.131V45.9475H107.077V47.678H102.407V49.5039Z" fill="white"/>
<path d="M0 54.8045V45.9293H6.91365V47.6916H2.29057V49.4778H6.4603V51.2481H5.60459C4.64122 51.2481 3.67784 51.2583 2.71559 51.2424C2.38351 51.2367 2.22937 51.3263 2.24977 51.6869C2.27357 52.1167 2.24977 52.5499 2.24977 53.058H7.09273V54.8011L0 54.8045Z" fill="white"/>
<path d="M32.1338 43.2495H23.9292V32.5474L32.1338 43.2495Z" fill="white"/>
<path d="M37.3054 45.9293H39.5722V46.5372C39.5722 48.0852 39.5631 49.6343 39.5722 51.1868C39.5824 52.1576 40.2216 52.923 41.0739 53.0421C42.1007 53.1861 42.9191 52.7257 43.1605 51.8287C43.2403 51.4987 43.2784 51.16 43.2738 50.8205C43.2851 49.4041 43.2795 47.9854 43.2806 46.5712V45.9293H45.4658C45.493 45.9713 45.5304 46.0019 45.5304 46.0325C45.51 47.9604 45.5825 49.8883 45.4363 51.8015C45.2912 53.6409 43.8031 54.8782 41.9353 54.953C41.484 54.9895 41.03 54.9747 40.582 54.9088C38.3345 54.4722 37.2952 53.1839 37.2952 50.8727L37.3054 45.9293Z" fill="white"/>
<path d="M117.294 53.5275L118.133 51.8672C118.778 52.1938 119.38 52.5908 120.047 52.8085C120.634 52.9868 121.248 53.0597 121.861 53.024C122.106 53.0138 122.445 52.6838 122.55 52.4275C122.704 52.0407 122.4 51.7357 122.046 51.5985C121.469 51.3717 120.869 51.2118 120.284 51.0076C119.87 50.8819 119.467 50.723 119.079 50.5325C118.726 50.3413 118.427 50.0631 118.211 49.7241C117.995 49.3852 117.869 48.9967 117.846 48.5954C117.822 48.1942 117.901 47.7935 118.075 47.4313C118.249 47.0692 118.513 46.7575 118.841 46.5258C119.74 45.8738 120.784 45.7195 121.853 45.8057C122.921 45.8919 123.964 46.1573 124.939 46.8048C124.665 47.3787 124.392 47.9457 124.159 48.4322L121.517 47.6633C121.463 47.6441 121.407 47.6341 121.349 47.6338C120.922 47.6633 120.417 47.6089 120.277 48.1509C120.138 48.693 120.54 48.9368 120.97 49.0911C121.782 49.3825 122.624 49.6025 123.418 49.9382C124.717 50.4882 125.264 51.6393 124.878 52.9355C124.558 54.0072 123.734 54.5482 122.705 54.7863C120.72 55.2467 118.956 54.7081 117.294 53.5275Z" fill="white"/>
<path d="M76.5614 45.9452V47.678H73.9047V54.8169H71.63V47.7245H68.9552V45.9452H76.5614Z" fill="white"/>
<path d="M58.273 35.3894V30.5526C59.5288 30.623 60.754 30.6071 61.952 30.7795C63.0344 30.9371 63.5659 31.6175 63.6634 32.6019C63.7654 33.6225 63.2282 34.6579 62.3294 35.0877C62.0299 35.2466 61.7015 35.3438 61.3638 35.3735C60.3528 35.4132 59.3396 35.3894 58.273 35.3894Z" fill="white"/>
<path d="M56.4585 54.8135V45.9373H58.6516V54.8135H56.4585Z" fill="white"/>
<path d="M89.0297 54.8317H86.8457V45.9361H89.0297V54.8317Z" fill="white"/>
<path d="M62.9788 43.2575H58.2798V39.0252C58.8148 39.0252 59.3192 39.0161 59.8235 39.0331C59.8869 39.0366 59.9489 39.0527 60.006 39.0806C60.063 39.1084 60.1139 39.1474 60.1556 39.1953C61.0895 40.5165 62.0019 41.8467 62.9788 43.2575Z" fill="white"/>
</svg>
